<svg width="37" height="35" viewBox="0 0 37 35" fill="none" xmlns="http://www.w3.org/2000/svg">
<path d="M-0.000488281 0.9375V34.0625C-0.000488281 34.3111 0.0969668 34.5496 0.270438 34.7254C0.443909 34.9012 0.679186 35 0.924512 35H36.0745C36.3198 35 36.5551 34.9012 36.7286 34.7254C36.9021 34.5496 36.9995 34.3111 36.9995 34.0625V0.9375C36.9995 0.68886 36.9021 0.450403 36.7286 0.274587C36.5551 0.0987719 36.3198 0 36.0745 0H0.924512C0.679186 0 0.443909 0.0987719 0.270438 0.274587C0.0969668 0.450403 -0.000488281 0.68886 -0.000488281 0.9375ZM4.43257 16.0547L10.3587 11.25L4.43257 6.44531L5.97424 4.49219L14.3069 11.25L5.97347 18.007L4.43257 16.0547ZM19.7328 17.5H12.3328V15H19.7328V17.5Z" fill="white"/>
</svg>
