<svg width="18" height="23" viewBox="0 0 18 23" fill="none" xmlns="http://www.w3.org/2000/svg">
<path d="M9 6.15259C9.53043 6.15259 10.0391 5.94187 10.4142 5.5668C10.7893 5.19173 11 4.68302 11 4.15259C11 3.77259 10.9 3.42259 10.71 3.12259L9 0.152588L7.29 3.12259C7.1 3.42259 7 3.77259 7 4.15259C7 5.25259 7.9 6.15259 9 6.15259ZM13.6 16.1426L12.53 15.0726L11.45 16.1426C10.15 17.4426 7.87 17.4526 6.56 16.1426L5.49 15.0726L4.4 16.1426C3.75 16.7926 2.88 17.1526 1.96 17.1526C1.23 17.1526 0.56 16.9226 0 16.5426V21.1526C0 21.7026 0.45 22.1526 1 22.1526H17C17.55 22.1526 18 21.7026 18 21.1526V16.5426C17.44 16.9226 16.77 17.1526 16.04 17.1526C15.12 17.1526 14.25 16.7926 13.6 16.1426ZM15 9.15259H10V7.15259H8V9.15259H3C1.34 9.15259 0 10.4926 0 12.1526V13.6926C0 14.7726 0.88 15.6526 1.96 15.6526C2.48 15.6526 2.98 15.4526 3.34 15.0826L5.48 12.9526L7.61 15.0826C8.35 15.8226 9.64 15.8226 10.38 15.0826L12.52 12.9526L14.65 15.0826C15.02 15.4526 15.51 15.6526 16.03 15.6526C17.11 15.6526 17.99 14.7726 17.99 13.6926V12.1526C18 10.4926 16.66 9.15259 15 9.15259Z" fill="#ABB2BF"/>
</svg>
