<svg width="26" height="38" viewBox="0 0 26 38" fill="none" xmlns="http://www.w3.org/2000/svg">
<path d="M12.9324 1.09998H7.01646C5.44721 1.09998 3.94224 1.71462 2.83261 2.80869C1.72299 3.90277 1.09961 5.38665 1.09961 6.9339C1.09961 8.48115 1.72299 9.96503 2.83261 11.0591C3.94224 12.1532 5.44721 12.7678 7.01646 12.7678M12.9324 1.09998V12.7678M12.9324 1.09998H18.8486C20.4178 1.09998 21.9228 1.71462 23.0324 2.80869C24.142 3.90277 24.7654 5.38665 24.7654 6.9339C24.7654 8.48115 24.142 9.96503 23.0324 11.0591C21.9228 12.1532 20.4178 12.7678 18.8486 12.7678H12.9324M7.01646 12.7678H12.9324M7.01646 12.7678C5.44745 12.7678 3.9427 13.3824 2.83324 14.4763C1.72378 15.5702 1.1005 17.0538 1.1005 18.6009C1.1005 20.1479 1.72378 21.6315 2.83324 22.7255C3.9427 23.8194 5.44745 24.4339 7.01646 24.4339H12.9324V12.7678M24.7662 18.6008C24.7662 20.1481 24.1428 21.632 23.0332 22.726C21.9236 23.8201 20.4186 24.4347 18.8494 24.4347C17.2801 24.4347 15.7751 23.8201 14.6655 22.726C13.5559 21.632 12.9325 20.1481 12.9325 18.6008C12.9325 17.0536 13.5559 15.5697 14.6655 14.4756C15.7751 13.3815 17.2801 12.7669 18.8494 12.7669C20.4186 12.7669 21.9236 13.3815 23.0332 14.4756C24.1428 15.5697 24.7662 17.0536 24.7662 18.6008ZM7.01655 24.4356H12.9325V30.2687C12.9322 31.4223 12.5849 32.5499 11.9346 33.5089C11.2844 34.4679 10.3603 35.2152 9.27926 35.6565C8.19823 36.0977 7.00878 36.2129 5.86131 35.9877C4.71385 35.7624 3.65989 35.2067 2.83271 34.3909C2.00552 33.5751 1.44226 32.5357 1.21413 31.4043C0.986008 30.2728 1.10327 29.1001 1.55108 28.0343C1.9989 26.9686 2.75717 26.0577 3.73 25.4168C4.70284 24.7759 5.84656 24.4356 7.01655 24.4356Z" stroke="white" strokeWidth="2.2"/>
</svg>
