<svg width="35" height="35" viewBox="0 0 35 35" fill="none" xmlns="http://www.w3.org/2000/svg">
<path d="M33.4306 16.0289L18.974 1.56908L17.4995 0L15.9585 1.56908L12.9504 4.57045L16.7567 8.37761C18.7597 7.70489 20.6517 9.61956 19.9644 11.6081L23.6376 15.2822C26.1653 14.4099 28.1609 17.5739 26.2614 19.4738C24.3028 21.4328 21.073 19.2594 22.1225 16.7164L18.6931 13.2863V22.2978C20.563 23.2218 20.3413 25.3952 19.3657 26.3636C19.1302 26.6001 18.8503 26.7878 18.5421 26.9158C18.2339 27.0438 17.9034 27.1097 17.5697 27.1097C17.236 27.1097 16.9056 27.0438 16.5974 26.9158C16.2892 26.7878 16.0093 26.6001 15.7737 26.3636C14.4729 25.0626 14.9534 22.8965 16.6089 22.2238V13.131C15.0716 12.5026 14.7908 10.8615 15.2342 9.80437L11.4796 6.04157L1.56846 15.955L-0.000488281 17.5L1.56846 18.9711L16.025 33.4309L17.5328 35L19.0405 33.4309L33.4306 19.0376L34.9995 17.5L33.4306 16.0215V16.0289Z" fill="white"/>
</svg>
