<svg width="36" height="35" viewBox="0 0 36 35" fill="none" xmlns="http://www.w3.org/2000/svg">
<path d="M12.0066 28.1819C12.0066 28.3267 11.8402 28.4425 11.6303 28.4425C11.3915 28.4642 11.225 28.3484 11.225 28.1819C11.225 28.0372 11.3915 27.9214 11.6014 27.9214C11.8185 27.8997 12.0066 28.0155 12.0066 28.1819ZM9.75585 27.8563C9.70518 28.001 9.84993 28.1675 10.067 28.2109C10.2552 28.2833 10.4723 28.2109 10.5158 28.0662C10.5592 27.9214 10.4217 27.7549 10.2046 27.6898C10.0164 27.6392 9.80651 27.7115 9.75585 27.8563ZM12.9547 27.7332C12.7448 27.7839 12.6001 27.9214 12.6218 28.0879C12.6435 28.2326 12.8317 28.3267 13.0488 28.276C13.2587 28.2254 13.4034 28.0879 13.3817 27.9431C13.36 27.8056 13.1646 27.7115 12.9547 27.7332ZM17.7168 0C7.67875 0 0 7.62085 0 17.659C0 25.6851 5.05162 32.5533 12.2672 34.9705C13.1936 35.137 13.5192 34.5652 13.5192 34.0948C13.5192 33.6461 13.4975 31.1709 13.4975 29.6511C13.4975 29.6511 8.43143 30.7367 7.36755 27.4944C7.36755 27.4944 6.5425 25.3884 5.35558 24.8456C5.35558 24.8456 3.69825 23.7093 5.47138 23.731C5.47138 23.731 7.27346 23.8758 8.26497 25.5982C9.84993 28.3918 12.506 27.5885 13.5409 27.1108C13.7074 25.9529 14.1778 25.1495 14.6989 24.6719C10.6533 24.2232 6.57144 23.6369 6.57144 16.6747C6.57144 14.6844 7.12148 13.6857 8.27944 12.4119C8.09127 11.9415 7.4761 10.0019 8.46761 7.49782C9.9802 7.02739 13.4613 9.45188 13.4613 9.45188C14.9088 9.04659 16.4648 8.83671 18.0063 8.83671C19.5479 8.83671 21.1039 9.04659 22.5513 9.45188C22.5513 9.45188 26.0325 7.02016 27.5451 7.49782C28.5366 10.0092 27.9214 11.9415 27.7332 12.4119C28.8912 13.6929 29.6005 14.6917 29.6005 16.6747C29.6005 23.6587 25.3377 24.2159 21.2921 24.6719C21.9579 25.2436 22.5224 26.3292 22.5224 28.03C22.5224 30.4689 22.5007 33.4869 22.5007 34.0803C22.5007 34.5508 22.8336 35.1225 23.7527 34.956C30.99 32.5533 35.8969 25.6851 35.8969 17.659C35.8969 7.62085 27.7549 0 17.7168 0ZM7.03463 24.9614C6.94055 25.0337 6.96226 25.2002 7.08529 25.3377C7.20109 25.4535 7.36755 25.5042 7.46163 25.4101C7.55571 25.3377 7.534 25.1712 7.41097 25.0337C7.29517 24.9179 7.12872 24.8673 7.03463 24.9614ZM6.25301 24.3751C6.20234 24.4692 6.27472 24.585 6.41946 24.6574C6.53526 24.7298 6.68 24.7081 6.73067 24.6067C6.78133 24.5126 6.70895 24.3969 6.56421 24.3245C6.41946 24.2811 6.30367 24.3028 6.25301 24.3751ZM8.59788 26.9516C8.48209 27.0457 8.52551 27.2628 8.69197 27.4003C8.85842 27.5668 9.0683 27.5885 9.16239 27.4727C9.25647 27.3786 9.21305 27.1615 9.06831 27.024C8.90908 26.8575 8.69197 26.8358 8.59788 26.9516ZM7.77283 25.8877C7.65704 25.9601 7.65704 26.1483 7.77283 26.3147C7.88863 26.4812 8.08403 26.5536 8.17812 26.4812C8.29392 26.3871 8.29392 26.1989 8.17812 26.0325C8.0768 25.866 7.88863 25.7936 7.77283 25.8877Z" fill="white"/>
</svg>
