<svg width="30" height="30" viewBox="0 0 30 30" fill="none" xmlns="http://www.w3.org/2000/svg">
<path d="M0 0V30H30V0H0ZM7.35717 5.89782C8.54542 5.9112 9.71593 6.73095 9.76685 8.15003C9.79225 9.4119 8.69257 10.373 7.32605 10.4022H7.2931C6.11667 10.3886 4.9678 9.54833 4.91455 8.15003C4.93132 6.9022 5.98022 5.92742 7.35717 5.89782ZM20.105 11.8598C21.4114 11.8679 22.6443 12.2554 23.6572 13.288C24.7099 14.462 25.0478 16.0807 25.0855 17.7264V25.2118H20.7715V18.2355C20.7619 16.9279 20.314 15.3386 18.5834 15.2857C17.5691 15.2965 16.8539 15.8858 16.3641 16.8714C16.2304 17.1886 16.2112 17.5532 16.2048 17.9169V25.2118H11.8927C11.9092 21.5649 11.9319 17.9182 11.9238 14.2712C11.9238 13.2353 11.9139 12.5378 11.8927 12.1784H16.2048V14.0167C16.5709 13.4962 16.9768 13.0024 17.5213 12.605C18.26 12.0779 19.1472 11.8758 20.105 11.8598ZM5.16908 12.1784H9.4812V25.2118H5.16908V12.1784Z" fill="white"/>
</svg>
