<svg width="43" height="43" viewBox="0 0 43 43" fill="none" xmlns="http://www.w3.org/2000/svg">
<g filter="url(#filter0_d_972_1924)">
<path d="M12.2715 8.40601C13.72 7.67624 12.3562 5.30083 10.9727 6.11462C11.3623 6.88745 12.1006 7.51098 12.2715 8.40601Z" fill="white"/>
<path d="M4 1.53185V2.64282C4.76973 4.59814 6.60449 6.00005 7.12949 8.07411C7.65381 10.1489 8.58213 12.1764 9.94727 13.822C9.42637 15.1455 9.03193 16.6064 8.92187 18.0576C8.81182 19.5088 8.99092 21.5308 9.5583 22.7577C10.125 23.9854 10.637 25.4088 12.2031 25.3484C13.7692 25.2887 13.6079 22.7952 13.8437 21.6683C14.971 24.4166 17.3369 26.6038 19.7227 28.3341C18.9892 27.4134 18.0629 26.5677 17.3813 25.5046C16.7005 24.4416 16.0572 23.3861 15.4632 22.2453C14.8698 21.1038 14.3605 19.7866 13.8437 18.6131C12.3521 19.972 12.0876 22.021 11.998 23.9597C10.9727 23.6208 10.6787 22.6064 10.3725 21.5836C10.0662 20.5608 9.93154 19.1117 10.0689 17.9729C10.2063 16.8342 10.3157 15.7322 10.8578 14.6775C11.3999 13.6227 10.7108 12.7833 10.0211 12.0111C9.33203 11.2383 9.14131 10.1433 8.78652 9.23785C8.43242 8.33241 8.17471 7.04923 7.70713 6.23753C7.23955 5.42582 6.64824 4.50163 6.06787 3.87531C5.4875 3.24969 4.60498 1.70197 5.64541 1.39784C6.68652 1.0944 7.62305 2.06998 8.55889 2.3866C9.49541 2.70254 10.0601 3.89128 11.1825 3.74894C12.305 3.6059 13.5792 4.04404 14.5328 4.4426C15.4857 4.84186 16.2507 5.33972 17.0737 5.88896C17.8968 6.43889 18.6029 6.96591 19.3296 7.62486C20.0556 8.2845 20.7125 8.92817 21.3462 9.67322C21.9799 10.4183 22.4905 11.1793 23.0244 11.9959C23.559 12.8117 24.0751 13.6706 24.4347 14.5907C24.7936 15.5114 25.2023 16.5599 25.6645 17.4382C26.1266 18.3166 26.4451 19.3623 26.899 20.2122C27.3522 21.0614 27.6394 22.1252 28.4781 22.6348C29.3176 23.1445 30.5474 23.3049 31.4278 23.7354C32.3083 24.1666 33.1628 24.5922 33.9209 25.2304C34.679 25.8692 35.6278 26.1837 36.1973 27.0149C35.3059 27.0371 34.1171 26.9572 33.3111 27.2079C32.5052 27.4586 31.5461 27.462 30.8604 27.9127C30.1748 28.3626 31.2029 29.3479 31.5317 29.8791C31.8605 30.4096 32.6371 30.9206 33.1949 31.3143C33.7527 31.708 34.5095 32.217 35.1876 32.4843C35.8657 32.7517 36.6081 33.1752 37.2056 33.6286C37.803 34.0821 38.3923 34.5626 39 35V34.7223C38.2829 33.5009 37.1714 32.4642 36.1344 31.4532C35.0974 30.4422 33.3993 30.1457 32.7793 28.7508C34.4493 28.3397 36.1897 28.1939 37.8379 27.7092C37.5139 26.5795 36.4584 25.8483 35.5875 25.0651C34.7173 24.2812 33.722 23.7764 32.795 23.041C31.8681 22.3057 30.4113 22.1814 29.481 21.4773C28.5506 20.7726 28.4125 19.3075 27.7836 18.3409C27.1554 17.3737 26.7671 16.0058 26.2694 14.949C25.7725 13.8921 25.3794 12.6534 24.6958 11.6869C24.0129 10.7196 23.3826 9.77043 22.6108 8.8747C21.8391 7.97898 21.1021 7.23879 20.2066 6.45625C19.3118 5.67301 18.402 5.06614 17.4142 4.36275C16.4264 3.65937 15.3764 3.13304 14.1869 2.78031C12.9981 2.42757 11.3049 2.6331 10.3403 1.75751C9.3751 0.882621 8.28135 0.609737 7.12197 0.166041C5.9626 -0.277655 4.29326 0.164653 4 1.53185Z" fill="white"/>
<path d="M12.2715 8.40601C13.72 7.67624 12.3562 5.30083 10.9727 6.11462C11.3623 6.88745 12.1006 7.51098 12.2715 8.40601Z" fill="white"/>
</g>
<defs>
<filter id="filter0_d_972_1924" x="0" y="0" width="43" height="43" filterUnits="userSpaceOnUse" color-interpolation-filters="sRGB">
<feFlood flood-opacity="0" result="BackgroundImageFix"/>
<feColorMatrix in="SourceAlpha" type="matrix" values="0 0 0 0 0 0 0 0 0 0 0 0 0 0 0 0 0 0 127 0" result="hardAlpha"/>
<feOffset dy="4"/>
<feGaussianBlur stdDeviation="2"/>
<feComposite in2="hardAlpha" operator="out"/>
<feColorMatrix type="matrix" values="0 0 0 0 0 0 0 0 0 0 0 0 0 0 0 0 0 0 0.4 0"/>
<feBlend mode="normal" in2="BackgroundImageFix" result="effect1_dropShadow_972_1924"/>
<feBlend mode="normal" in="SourceGraphic" in2="effect1_dropShadow_972_1924" result="shape"/>
</filter>
</defs>
</svg>
