<svg width="35" height="35" viewBox="0 0 35 35" fill="none" xmlns="http://www.w3.org/2000/svg">
<path d="M17.5 0C12.8587 0 8.40752 1.84374 5.12563 5.12563C1.84374 8.40752 0 12.8587 0 17.5C0 22.1413 1.84374 26.5925 5.12563 29.8744C8.40752 33.1563 12.8587 35 17.5 35C20.9581 34.9932 24.3367 33.9619 27.2092 32.0365L12.8554 13.4914V24.494H10.5V10.5H13.4444L29.0645 30.6206C30.928 28.9799 32.421 26.9613 33.4444 24.6991C34.4678 22.437 34.998 19.9829 35 17.5C35 12.8587 33.1563 8.40752 29.8744 5.12563C26.5925 1.84374 22.1413 0 17.5 0ZM22.3609 10.5H24.6944V23.8372L22.3609 20.773V10.5Z" fill="white"/>
</svg>
