<svg width="32" height="35" viewBox="0 0 32 35" fill="none" xmlns="http://www.w3.org/2000/svg">
<path d="M15.5085 35C15.0432 35 14.5709 34.875 14.1611 34.6389L9.87598 32.1039C9.23703 31.7427 9.54956 31.6177 9.75791 31.5483C10.6122 31.2496 10.7858 31.1871 11.6956 30.6662C11.7928 30.6107 11.9178 30.6315 12.0151 30.694L15.3071 32.6456C15.4251 32.715 15.5918 32.715 15.7029 32.6456L28.5306 25.2421C28.6487 25.1726 28.7251 25.0337 28.7251 24.8948V10.0878C28.7251 9.94196 28.6487 9.81 28.5237 9.7336L15.7029 2.33704C15.5849 2.26759 15.4251 2.26759 15.3071 2.33704L2.4933 9.74055C2.36829 9.81 2.29189 9.9489 2.29189 10.0948V24.8948C2.29189 25.0337 2.36829 25.1726 2.4933 25.2351L6.00754 27.2631C7.91745 28.2146 9.08423 27.0964 9.08423 25.9644V11.3518C9.08423 11.1435 9.25092 10.9837 9.45927 10.9837H11.0844C11.2858 10.9837 11.4595 11.1435 11.4595 11.3518V25.9713C11.4595 28.5132 10.0704 29.9717 7.66048 29.9717C6.91735 29.9717 6.33396 29.9717 4.7088 29.1661L1.34736 27.2284C0.51394 26.7492 0 25.8533 0 24.8879V10.0878C0 9.12938 0.51394 8.22651 1.34736 7.7473L14.1611 0.343784C14.9737 -0.114595 16.0502 -0.114595 16.8558 0.343784L29.6835 7.75424C30.5169 8.23346 31.0309 9.12938 31.0309 10.0948V24.8948C31.0309 25.8533 30.5169 26.7492 29.6835 27.2353L16.8558 34.6389C16.4461 34.875 15.9808 35 15.5085 35ZM25.8637 20.4083C25.8637 17.6372 23.9885 16.901 20.0506 16.3801C16.0641 15.8523 15.6613 15.5814 15.6613 14.6508C15.6613 13.8798 16.0016 12.852 18.9533 12.852C21.5855 12.852 22.5578 13.4215 22.9606 15.1994C22.9953 15.3661 23.1481 15.4911 23.3218 15.4911H24.9886C25.0928 15.4911 25.19 15.4494 25.2594 15.3731C25.3289 15.2967 25.3636 15.1925 25.3567 15.0883C25.0997 12.0255 23.0648 10.6017 18.9533 10.6017C15.2932 10.6017 13.1124 12.1436 13.1124 14.7341C13.1124 17.5399 15.2862 18.3178 18.7935 18.665C22.9953 19.0748 23.3218 19.6929 23.3218 20.5194C23.3218 21.9501 22.1689 22.5613 19.4672 22.5613C16.071 22.5613 15.3279 21.707 15.0779 20.0193C15.0501 19.8388 14.8973 19.7068 14.7098 19.7068H13.0499C12.8416 19.7068 12.6818 19.8735 12.6818 20.0749C12.6818 22.2348 13.8555 24.8115 19.4742 24.8115C23.5301 24.8045 25.8637 23.2002 25.8637 20.4083Z" fill="white"/>
</svg>
