<svg width="40" height="35" viewBox="0 0 40 35" fill="none" xmlns="http://www.w3.org/2000/svg">
<path d="M32.6701 11.3422C32.2483 11.2015 31.8264 11.0687 31.4046 10.9438C31.4749 10.6547 31.5374 10.3657 31.5999 10.0766C32.5608 5.42061 31.928 1.67862 29.7953 0.444312C27.7407 -0.735313 24.3893 0.491184 20.9989 3.44415C20.663 3.7332 20.3349 4.03787 20.0224 4.34254C19.8114 4.13943 19.5927 3.93631 19.374 3.74101C15.8195 0.584929 12.2572 -0.743125 10.1245 0.498996C8.07769 1.68643 7.46835 5.20968 8.32768 9.6157C8.41361 10.0532 8.50736 10.4828 8.61673 10.9203C8.11675 11.0609 7.62459 11.2172 7.16368 11.3812C2.99203 12.8265 0 15.1076 0 17.4668C0 19.9042 3.18733 22.3494 7.52304 23.8337C7.87458 23.9509 8.22612 24.068 8.58548 24.1696C8.4683 24.6383 8.36674 25.0992 8.273 25.5758C7.45273 29.9115 8.09332 33.3488 10.1401 34.5284C12.2493 35.7471 15.796 34.4972 19.249 31.4739C19.5224 31.2317 19.7958 30.9817 20.0692 30.7161C20.413 31.0521 20.7723 31.3723 21.1317 31.6848C24.4753 34.5597 27.7798 35.7237 29.8187 34.5441C31.928 33.3254 32.6154 29.6303 31.7249 25.1305C31.6546 24.7868 31.5764 24.4352 31.4905 24.0759C31.7405 24.0056 31.9827 23.9274 32.2248 23.8493C36.7324 22.3572 39.9979 19.9433 39.9979 17.4668C39.9979 15.0998 36.9199 12.803 32.6701 11.3422ZM22.1004 4.70971C25.0065 2.17859 27.7173 1.18646 28.9516 1.89736C30.2718 2.65513 30.7796 5.71747 29.9515 9.74069C29.8968 10.0063 29.8422 10.2641 29.7719 10.5219C28.0376 10.1313 26.2798 9.85006 24.5143 9.69382C23.4987 8.24077 22.3894 6.85022 21.1864 5.5456C21.491 5.25655 21.7879 4.98313 22.1004 4.70971ZM13.0618 21.5213C13.4602 22.201 13.8664 22.8806 14.2961 23.5446C13.0774 23.4118 11.8666 23.2165 10.6713 22.9587C11.015 21.8338 11.4447 20.6698 11.9447 19.4824C12.304 20.1698 12.6712 20.8495 13.0618 21.5213ZM10.6947 12.1234C11.8197 11.8734 13.0149 11.6703 14.2571 11.514C13.843 12.1624 13.4368 12.8265 13.054 13.4983C12.6712 14.1623 12.2962 14.842 11.9447 15.5294C11.4525 14.3654 11.0385 13.2249 10.6947 12.1234ZM12.8353 17.5059C13.3509 16.4278 13.9133 15.3732 14.507 14.3342C15.1008 13.2952 15.7413 12.2874 16.4132 11.2953C17.585 11.2094 18.7802 11.1625 19.9989 11.1625C21.2176 11.1625 22.4207 11.2094 23.5847 11.2953C24.2487 12.2796 24.8815 13.2874 25.483 14.3186C26.0845 15.3498 26.647 16.4044 27.1782 17.4747C26.6548 18.5527 26.0924 19.6152 25.4908 20.662C24.8971 21.701 24.2643 22.7087 23.6003 23.7087C22.4363 23.7946 21.2254 23.8337 19.9989 23.8337C18.7724 23.8337 17.585 23.7946 16.4366 23.7243C15.757 22.7322 15.1164 21.7166 14.5149 20.6776C13.9133 19.6386 13.3587 18.584 12.8353 17.5059ZM26.9439 21.5057C27.3423 20.8182 27.7173 20.1229 28.0844 19.4199C28.5844 20.5526 29.0219 21.701 29.4047 22.8806C28.1938 23.154 26.9673 23.365 25.733 23.5056C26.1549 22.8494 26.5533 22.1775 26.9439 21.5057ZM28.0688 15.5294C27.7016 14.842 27.3267 14.1545 26.9361 13.4827C26.5533 12.8187 26.1549 12.1624 25.7408 11.514C26.9986 11.6703 28.2016 11.8812 29.3266 12.139C28.9672 13.2952 28.5454 14.4201 28.0688 15.5294ZM20.0146 6.74085C20.8348 7.63143 21.6082 8.56888 22.3269 9.53758C20.7801 9.46727 19.2255 9.46727 17.6787 9.53758C18.4443 8.52982 19.2334 7.59237 20.0146 6.74085ZM10.9525 1.95204C12.265 1.18646 15.1789 2.28015 18.249 4.99876C18.4443 5.17062 18.6396 5.35811 18.8427 5.5456C17.6319 6.85022 16.5147 8.24077 15.4914 9.69382C13.7258 9.85006 11.9759 10.1235 10.2416 10.5063C10.1401 10.1079 10.0542 9.70163 9.96822 9.2954C9.23388 5.51435 9.71823 2.66294 10.9525 1.95204ZM9.03858 22.5447C8.71047 22.4509 8.39018 22.3494 8.06988 22.24C6.40591 21.7166 4.51538 20.8885 3.14827 19.8027C2.35925 19.2558 1.82803 18.4121 1.6796 17.4668C1.6796 16.0372 4.14822 14.2092 7.71053 12.9671C8.15582 12.8108 8.60892 12.6702 9.06202 12.5374C9.59324 14.2326 10.2338 15.8966 10.976 17.5059C10.226 19.1386 9.57761 20.826 9.03858 22.5447ZM18.1475 30.2005C16.8585 31.3802 15.3664 32.3176 13.7415 32.9582C12.8743 33.3722 11.8744 33.4113 10.9838 33.0598C9.74167 32.341 9.22607 29.5834 9.92916 25.8726C10.0151 25.4352 10.1088 24.9977 10.2182 24.568C11.9681 24.943 13.7336 25.2008 15.5226 25.3336C16.5538 26.7945 17.6866 28.1928 18.8974 29.5053C18.6474 29.7474 18.3975 29.9818 18.1475 30.2005ZM20.0614 28.3022C19.2646 27.4429 18.4678 26.4898 17.6944 25.4664C18.4443 25.4977 19.2177 25.5133 19.9989 25.5133C20.8036 25.5133 21.5926 25.4977 22.3738 25.4586C21.6551 26.4507 20.8817 27.396 20.0614 28.3022ZM30.2718 30.6458C30.2015 31.5989 29.7328 32.4895 28.9828 33.091C27.7407 33.8097 25.0924 32.8723 22.2332 30.4193C21.9051 30.138 21.577 29.8334 21.2411 29.5209C22.4363 28.2006 23.5378 26.8023 24.5378 25.3336C26.3267 25.1852 28.1079 24.9118 29.8656 24.5133C29.9437 24.8336 30.014 25.1539 30.0765 25.4664C30.4593 27.1538 30.5218 28.9115 30.2718 30.6458ZM31.6936 22.2478C31.4749 22.3181 31.2561 22.3885 31.0296 22.4509C30.4827 20.7479 29.8109 19.0839 29.0375 17.4668C29.7875 15.8732 30.4203 14.2326 30.9515 12.553C31.3577 12.6702 31.7483 12.7952 32.1233 12.9202C35.7637 14.1701 38.3183 16.0294 38.3183 17.4512C38.3183 18.9824 35.5919 20.9588 31.6936 22.2478ZM19.9989 21.076C21.9754 21.076 23.5769 19.4745 23.5769 17.4981C23.5769 15.5216 21.9754 13.9202 19.9989 13.9202C18.0225 13.9202 16.421 15.5216 16.421 17.4981C16.421 19.4745 18.0225 21.076 19.9989 21.076Z" fill="white"/>
</svg>
