<svg width="35" height="35" viewBox="0 0 35 35" fill="none" xmlns="http://www.w3.org/2000/svg">
<path d="M17.5 9.10875C27.1644 9.10875 35 7.07 35 4.55525C35 2.03875 27.1644 0 17.5 0C7.83562 0 0 2.03875 0 4.55525C0 7.07 7.83562 9.10875 17.5 9.10875ZM17.5 35C28.3566 35 35 32.0495 35 30.4447V22.7378C34.8862 22.7938 34.755 22.8428 34.6391 22.8953C34.111 23.1437 33.567 23.3697 33.0094 23.5725C32.5865 23.7265 32.149 23.8741 31.6969 24.0152C31.5612 24.0584 31.4234 24.101 31.2834 24.143C26.8455 25.3423 22.1861 25.9328 17.5022 25.8895C12.8319 25.9368 8.18344 25.347 3.72094 24.143L3.3075 24.0152C2.67393 23.8209 2.05201 23.6031 1.44375 23.3625C1.07756 23.2169 0.717857 23.061 0.365312 22.8953C0.249375 22.8428 0.118125 22.7938 0.00437468 22.7378V30.4447C-3.17305e-07 32.0513 6.64344 35 17.5 35ZM33.0094 10.626C32.578 10.7849 32.1403 10.9326 31.6969 11.0687C31.5612 11.1131 31.4234 11.1562 31.2834 11.1982C26.8455 12.3975 22.1861 12.988 17.5022 12.9448C12.8319 12.992 8.18344 12.4023 3.72094 11.1982L3.3075 11.0687C2.67397 10.875 2.05205 10.6577 1.44375 10.4178C1.07753 10.2716 0.717825 10.1151 0.365312 9.94875C0.245 9.89625 0.11375 9.84725 0 9.79125V17.5C0 19.1047 6.64344 22.0553 17.5 22.0553C28.3566 22.0553 35 19.1047 35 17.5V9.793C34.8862 9.84725 34.755 9.89625 34.6391 9.9505C34.111 10.1983 33.567 10.4238 33.0094 10.626Z" fill="white"/>
</svg>
