<svg width="35" height="35" viewBox="0 0 35 35" fill="none" xmlns="http://www.w3.org/2000/svg">
<path d="M3.78931 11.3891L10.9516 31.006C5.94153 28.5786 2.49093 23.4415 2.49093 17.5C2.49093 15.3196 2.95665 13.2591 3.78931 11.3891ZM27.6331 16.745C27.6331 14.8891 26.9698 13.6048 26.3982 12.6028C25.6361 11.3679 24.9234 10.3165 24.9234 9.08165C24.9234 7.69859 25.9677 6.41431 27.4425 6.41431C27.506 6.41431 27.5696 6.42137 27.6401 6.42843C24.9657 3.97984 21.4093 2.48387 17.5 2.48387C12.2571 2.48387 7.64214 5.17238 4.95363 9.25101C5.30645 9.26512 5.6381 9.27218 5.92036 9.27218C7.4869 9.27218 9.92137 9.08165 9.92137 9.08165C10.7329 9.03226 10.8246 10.2248 10.0202 10.3165C10.0202 10.3165 9.20867 10.4083 8.30544 10.4577L13.7742 26.7157L17.0625 16.8649L14.7268 10.4577C13.9153 10.4083 13.1532 10.3165 13.1532 10.3165C12.3417 10.2671 12.4405 9.03226 13.245 9.08165C13.245 9.08165 15.7218 9.27218 17.1966 9.27218C18.7631 9.27218 21.1976 9.08165 21.1976 9.08165C22.0091 9.03226 22.1008 10.2248 21.2964 10.3165C21.2964 10.3165 20.4849 10.4083 19.5817 10.4577L25.0081 26.5958L26.504 21.5927C27.1391 19.5181 27.6331 18.0292 27.6331 16.745ZM17.7611 18.8125L13.2591 31.9022C14.6069 32.2974 16.0252 32.5161 17.5 32.5161C19.25 32.5161 20.9224 32.2127 22.4819 31.6623C22.4395 31.5988 22.4042 31.5282 22.376 31.4577L17.7611 18.8125ZM30.6744 10.2954C30.7379 10.7752 30.7732 11.2833 30.7732 11.8407C30.7732 13.3649 30.4909 15.0726 29.63 17.2177L25.0433 30.4768C29.5101 27.873 32.5091 23.0393 32.5091 17.5C32.5091 14.8891 31.8458 12.4335 30.6744 10.2954ZM35 17.5C35 27.1532 27.1462 35 17.5 35C7.84677 35 0 27.1462 0 17.5C0 7.84677 7.84677 0 17.5 0C27.1462 0 35 7.84677 35 17.5ZM34.1956 17.5C34.1956 8.29133 26.7016 0.804435 17.5 0.804435C8.29133 0.804435 0.804435 8.29133 0.804435 17.5C0.804435 26.7087 8.29839 34.1956 17.5 34.1956C26.7087 34.1956 34.1956 26.7087 34.1956 17.5Z" fill="white"/>
</svg>
