<svg width="100" height="42" viewBox="0 0 100 42" fill="none" xmlns="http://www.w3.org/2000/svg">
<path d="M38.2609 7.99996L43.0435 13V33.1525L38.2609 26.7239V7.99996Z" fill="white"/>
<path d="M37.0917 28.5H5.807L1.50265 34.5H41.5555L37.0917 28.5Z" fill="white"/>
<path d="M0 13V33.1666L4.78259 26.5V7.5L0 13Z" fill="white"/>
<path d="M29.8913 15.5V19.5H14.1087V15.5H11.4782V21.5H32.5217V15.5H29.8913Z" fill="white"/>
<path d="M52.4515 16V4.32H59.4595V6.064H54.4195V9.104H58.8995V10.832H54.4195V14.256H59.4595V16H52.4515ZM61.4692 16V7.2H63.1012V8.384H63.4372L63.1652 8.672C63.1652 8.18133 63.3039 7.78667 63.5812 7.488C63.8585 7.18933 64.2159 7.04 64.6532 7.04C65.1225 7.04 65.4852 7.232 65.7412 7.616C66.0079 8 66.1412 8.51733 66.1412 9.168L65.7892 8.384H66.3332L66.1252 8.672C66.1252 8.18133 66.2639 7.78667 66.5412 7.488C66.8185 7.18933 67.1865 7.04 67.6452 7.04C68.1892 7.04 68.6212 7.24267 68.9412 7.648C69.2612 8.05333 69.4212 8.60267 69.4212 9.296V16H67.6612V9.376C67.6612 9.088 67.5972 8.864 67.4692 8.704C67.3412 8.53333 67.1545 8.448 66.9092 8.448C66.6745 8.448 66.4879 8.528 66.3492 8.688C66.2212 8.848 66.1572 9.07733 66.1572 9.376V16H64.7172V9.376C64.7172 9.07733 64.6532 8.848 64.5252 8.688C64.3972 8.528 64.2105 8.448 63.9652 8.448C63.7199 8.448 63.5332 8.528 63.4052 8.688C63.2879 8.848 63.2292 9.07733 63.2292 9.376V16H61.4692ZM71.463 18.88V7.2H73.415V8.88H73.863L73.415 9.344C73.415 8.62933 73.6283 8.06933 74.055 7.664C74.4816 7.248 75.0576 7.04 75.783 7.04C76.6683 7.04 77.3776 7.344 77.911 7.952C78.4443 8.56 78.711 9.376 78.711 10.4V12.784C78.711 13.4667 78.5883 14.064 78.343 14.576C78.1083 15.0773 77.7723 15.4667 77.335 15.744C76.8976 16.0213 76.3803 16.16 75.783 16.16C75.0576 16.16 74.4816 15.9573 74.055 15.552C73.6283 15.136 73.415 14.5707 73.415 13.856L73.863 14.32H73.399L73.463 16.416V18.88H71.463ZM75.079 14.432C75.591 14.432 75.991 14.2827 76.279 13.984C76.567 13.6853 76.711 13.2587 76.711 12.704V10.496C76.711 9.94133 76.567 9.51467 76.279 9.216C75.991 8.91733 75.591 8.768 75.079 8.768C74.5776 8.768 74.183 8.92267 73.895 9.232C73.607 9.53067 73.463 9.952 73.463 10.496V12.704C73.463 13.248 73.607 13.6747 73.895 13.984C74.183 14.2827 74.5776 14.432 75.079 14.432ZM85.5847 16C84.742 16 84.0807 15.7653 83.6007 15.296C83.1314 14.8267 82.8967 14.1813 82.8967 13.36V9.008H80.5127V7.2H82.8967V4.72H84.9127V7.2H88.2887V9.008H84.9127V13.36C84.9127 13.9147 85.1847 14.192 85.7287 14.192H88.1287V16H85.5847ZM92.0745 18.88L93.3065 15.52L90.0265 7.2H92.2185L93.8505 11.696C93.9358 11.9413 94.0211 12.24 94.1065 12.592C94.1918 12.9333 94.2558 13.216 94.2985 13.44C94.3518 13.216 94.4211 12.9333 94.5065 12.592C94.5918 12.24 94.6771 11.9413 94.7625 11.696L96.2985 7.2H98.4105L94.1705 18.88H92.0745ZM55.8755 37.16C55.0755 37.16 54.3821 37.0267 53.7955 36.76C53.2088 36.4933 52.7555 36.1147 52.4355 35.624C52.1261 35.1227 51.9661 34.536 51.9555 33.864H53.9555C53.9555 34.344 54.1261 34.7227 54.4675 35C54.8195 35.2667 55.2941 35.4 55.8915 35.4C56.4675 35.4 56.9155 35.2667 57.2355 35C57.5661 34.7333 57.7315 34.3653 57.7315 33.896C57.7315 33.5013 57.6141 33.16 57.3795 32.872C57.1555 32.5733 56.8301 32.3707 56.4035 32.264L55.0595 31.896C54.1421 31.6613 53.4328 31.24 52.9315 30.632C52.4408 30.024 52.1955 29.288 52.1955 28.424C52.1955 27.7627 52.3448 27.1867 52.6435 26.696C52.9421 26.2053 53.3635 25.8267 53.9075 25.56C54.4621 25.2933 55.1128 25.16 55.8595 25.16C56.9901 25.16 57.8861 25.4533 58.5475 26.04C59.2088 26.616 59.5448 27.3947 59.5555 28.376H57.5555C57.5555 27.9173 57.4061 27.56 57.1075 27.304C56.8088 27.0373 56.3875 26.904 55.8435 26.904C55.3208 26.904 54.9155 27.0267 54.6275 27.272C54.3395 27.5173 54.1955 27.864 54.1955 28.312C54.1955 28.7173 54.3021 29.064 54.5155 29.352C54.7395 29.6293 55.0595 29.8267 55.4755 29.944L56.8675 30.328C57.7955 30.5627 58.5048 30.984 58.9955 31.592C59.4861 32.1893 59.7315 32.9307 59.7315 33.816C59.7315 34.4773 59.5715 35.064 59.2515 35.576C58.9315 36.0773 58.4835 36.4667 57.9075 36.744C57.3315 37.0213 56.6541 37.16 55.8755 37.16ZM61.8692 39.88V28.2H63.8212V29.88H64.2692L63.8212 30.344C63.8212 29.6293 64.0345 29.0693 64.4612 28.664C64.8879 28.248 65.4639 28.04 66.1892 28.04C67.0745 28.04 67.7839 28.344 68.3172 28.952C68.8505 29.56 69.1172 30.376 69.1172 31.4V33.784C69.1172 34.4667 68.9945 35.064 68.7492 35.576C68.5145 36.0773 68.1785 36.4667 67.7412 36.744C67.3039 37.0213 66.7865 37.16 66.1892 37.16C65.4639 37.16 64.8879 36.9573 64.4612 36.552C64.0345 36.136 63.8212 35.5707 63.8212 34.856L64.2692 35.32H63.8052L63.8692 37.416V39.88H61.8692ZM65.4852 35.432C65.9972 35.432 66.3972 35.2827 66.6852 34.984C66.9732 34.6853 67.1172 34.2587 67.1172 33.704V31.496C67.1172 30.9413 66.9732 30.5147 66.6852 30.216C66.3972 29.9173 65.9972 29.768 65.4852 29.768C64.9839 29.768 64.5892 29.9227 64.3012 30.232C64.0132 30.5307 63.8692 30.952 63.8692 31.496V33.704C63.8692 34.248 64.0132 34.6747 64.3012 34.984C64.5892 35.2827 64.9839 35.432 65.4852 35.432ZM74.055 37.16C73.1483 37.16 72.4336 36.92 71.911 36.44C71.3883 35.96 71.127 35.3147 71.127 34.504C71.127 33.64 71.415 32.9733 71.991 32.504C72.567 32.0347 73.383 31.8 74.439 31.8H76.631V31.048C76.631 30.6213 76.4923 30.2907 76.215 30.056C75.9376 29.8107 75.559 29.688 75.079 29.688C74.6416 29.688 74.279 29.784 73.991 29.976C73.703 30.168 73.5323 30.4293 73.479 30.76H71.527C71.623 29.928 71.9963 29.2667 72.647 28.776C73.2976 28.2853 74.1296 28.04 75.143 28.04C76.2203 28.04 77.0683 28.312 77.687 28.856C78.3163 29.3893 78.631 30.1147 78.631 31.032V37H76.695V35.464H76.375L76.695 35.032C76.695 35.6827 76.455 36.2 75.975 36.584C75.495 36.968 74.855 37.16 74.055 37.16ZM74.711 35.656C75.2763 35.656 75.735 35.512 76.087 35.224C76.4496 34.936 76.631 34.5627 76.631 34.104V33.032H74.471C74.0656 33.032 73.7403 33.1493 73.495 33.384C73.2496 33.6187 73.127 33.928 73.127 34.312C73.127 34.728 73.2656 35.0587 73.543 35.304C73.831 35.5387 74.2203 35.656 74.711 35.656ZM84.6727 37.16C83.926 37.16 83.27 37.0213 82.7047 36.744C82.15 36.456 81.718 36.056 81.4087 35.544C81.0994 35.0213 80.9447 34.408 80.9447 33.704V31.496C80.9447 30.7813 81.0994 30.168 81.4087 29.656C81.718 29.144 82.15 28.7493 82.7047 28.472C83.27 28.184 83.926 28.04 84.6727 28.04C85.782 28.04 86.6674 28.328 87.3287 28.904C87.99 29.4693 88.3367 30.2427 88.3687 31.224H86.3687C86.3367 30.7653 86.1714 30.4133 85.8727 30.168C85.5847 29.912 85.1847 29.784 84.6727 29.784C84.1394 29.784 83.718 29.9333 83.4087 30.232C83.0994 30.52 82.9447 30.936 82.9447 31.48V33.704C82.9447 34.248 83.0994 34.6693 83.4087 34.968C83.718 35.2667 84.1394 35.416 84.6727 35.416C85.1847 35.416 85.5847 35.2933 85.8727 35.048C86.1714 34.792 86.3367 34.4347 86.3687 33.976H88.3687C88.3367 34.9573 87.99 35.736 87.3287 36.312C86.6674 36.8773 85.782 37.16 84.6727 37.16ZM94.2345 37.16C93.4878 37.16 92.8371 37.016 92.2825 36.728C91.7278 36.44 91.2958 36.04 90.9865 35.528C90.6878 35.0053 90.5385 34.3973 90.5385 33.704V31.496C90.5385 30.8027 90.6878 30.2 90.9865 29.688C91.2958 29.1653 91.7278 28.76 92.2825 28.472C92.8371 28.184 93.4878 28.04 94.2345 28.04C94.9705 28.04 95.6105 28.184 96.1545 28.472C96.7091 28.76 97.1358 29.1653 97.4345 29.688C97.7438 30.2 97.8985 30.8027 97.8985 31.496V33.08H92.4745V33.704C92.4745 34.3227 92.6238 34.792 92.9225 35.112C93.2211 35.4213 93.6638 35.576 94.2505 35.576C94.6985 35.576 95.0611 35.5013 95.3385 35.352C95.6158 35.192 95.7918 34.9627 95.8665 34.664H97.8345C97.6851 35.4213 97.2798 36.0293 96.6185 36.488C95.9678 36.936 95.1731 37.16 94.2345 37.16ZM95.9625 31.96V31.48C95.9625 30.872 95.8185 30.408 95.5305 30.088C95.2425 29.7573 94.8105 29.592 94.2345 29.592C93.6585 29.592 93.2211 29.7573 92.9225 30.088C92.6238 30.4187 92.4745 30.888 92.4745 31.496V31.832L96.1065 31.8L95.9625 31.96Z" fill="white"/>
</svg>
