<svg width="148" height="27" viewBox="0 0 148 27" fill="none" xmlns="http://www.w3.org/2000/svg">
<path d="M1.408 19V7.31999H8.416V9.06399H3.376V12.104H7.856V13.832H3.376V17.256H8.416V19H1.408ZM10.4258 19V10.2H12.0578V11.384H12.3938L12.1218 11.672C12.1218 11.1813 12.2604 10.7867 12.5378 10.488C12.8151 10.1893 13.1724 10.04 13.6098 10.04C14.0791 10.04 14.4418 10.232 14.6978 10.616C14.9644 11 15.0978 11.5173 15.0978 12.168L14.7458 11.384H15.2898L15.0818 11.672C15.0818 11.1813 15.2204 10.7867 15.4978 10.488C15.7751 10.1893 16.1431 10.04 16.6018 10.04C17.1458 10.04 17.5778 10.2427 17.8978 10.648C18.2178 11.0533 18.3778 11.6027 18.3778 12.296V19H16.6178V12.376C16.6178 12.088 16.5538 11.864 16.4258 11.704C16.2978 11.5333 16.1111 11.448 15.8658 11.448C15.6311 11.448 15.4444 11.528 15.3058 11.688C15.1778 11.848 15.1138 12.0773 15.1138 12.376V19H13.6738V12.376C13.6738 12.0773 13.6098 11.848 13.4818 11.688C13.3538 11.528 13.1671 11.448 12.9218 11.448C12.6764 11.448 12.4898 11.528 12.3618 11.688C12.2444 11.848 12.1858 12.0773 12.1858 12.376V19H10.4258ZM20.4195 21.88V10.2H22.3715V11.88H22.8195L22.3715 12.344C22.3715 11.6293 22.5848 11.0693 23.0115 10.664C23.4382 10.248 24.0142 10.04 24.7395 10.04C25.6248 10.04 26.3342 10.344 26.8675 10.952C27.4008 11.56 27.6675 12.376 27.6675 13.4V15.784C27.6675 16.4667 27.5448 17.064 27.2995 17.576C27.0648 18.0773 26.7288 18.4667 26.2915 18.744C25.8542 19.0213 25.3368 19.16 24.7395 19.16C24.0142 19.16 23.4382 18.9573 23.0115 18.552C22.5848 18.136 22.3715 17.5707 22.3715 16.856L22.8195 17.32H22.3555L22.4195 19.416V21.88H20.4195ZM24.0355 17.432C24.5475 17.432 24.9475 17.2827 25.2355 16.984C25.5235 16.6853 25.6675 16.2587 25.6675 15.704V13.496C25.6675 12.9413 25.5235 12.5147 25.2355 12.216C24.9475 11.9173 24.5475 11.768 24.0355 11.768C23.5342 11.768 23.1395 11.9227 22.8515 12.232C22.5635 12.5307 22.4195 12.952 22.4195 13.496V15.704C22.4195 16.248 22.5635 16.6747 22.8515 16.984C23.1395 17.2827 23.5342 17.432 24.0355 17.432ZM34.5413 19C33.6986 19 33.0373 18.7653 32.5573 18.296C32.0879 17.8267 31.8533 17.1813 31.8533 16.36V12.008H29.4693V10.2H31.8533V7.71999H33.8693V10.2H37.2453V12.008H33.8693V16.36C33.8693 16.9147 34.1413 17.192 34.6853 17.192H37.0853V19H34.5413ZM41.031 21.88L42.263 18.52L38.983 10.2H41.175L42.807 14.696C42.8923 14.9413 42.9777 15.24 43.063 15.592C43.1483 15.9333 43.2123 16.216 43.255 16.44C43.3083 16.216 43.3777 15.9333 43.463 15.592C43.5483 15.24 43.6337 14.9413 43.719 14.696L45.255 10.2H47.367L43.127 21.88H41.031Z" fill="white"/>
<path d="M90.2609 0.499964L95.0435 5.49998V25.6525L90.2609 19.2239V0.499964Z" fill="white"/>
<path d="M89.0917 21H57.807L53.5026 27H93.5555L89.0917 21Z" fill="white"/>
<path d="M52 5.49998V25.6666L56.7826 19V0L52 5.49998Z" fill="white"/>
<path d="M81.8913 7.99998V12H66.1087V7.99998H63.4782V14H84.5217V7.99998H81.8913Z" fill="white"/>
<path d="M103.875 19.16C103.075 19.16 102.382 19.0267 101.795 18.76C101.209 18.4933 100.755 18.1147 100.435 17.624C100.126 17.1227 99.9662 16.536 99.9555 15.864H101.955C101.955 16.344 102.126 16.7227 102.467 17C102.819 17.2667 103.294 17.4 103.891 17.4C104.467 17.4 104.915 17.2667 105.235 17C105.566 16.7333 105.731 16.3653 105.731 15.896C105.731 15.5013 105.614 15.16 105.379 14.872C105.155 14.5733 104.83 14.3707 104.403 14.264L103.059 13.896C102.142 13.6613 101.433 13.24 100.931 12.632C100.441 12.024 100.195 11.288 100.195 10.424C100.195 9.76266 100.345 9.18666 100.643 8.69599C100.942 8.20532 101.363 7.82666 101.907 7.55999C102.462 7.29332 103.113 7.15999 103.859 7.15999C104.99 7.15999 105.886 7.45332 106.547 8.03999C107.209 8.61599 107.545 9.39466 107.555 10.376H105.555C105.555 9.91732 105.406 9.55999 105.107 9.30399C104.809 9.03732 104.387 8.90399 103.843 8.90399C103.321 8.90399 102.915 9.02666 102.627 9.27199C102.339 9.51732 102.195 9.86399 102.195 10.312C102.195 10.7173 102.302 11.064 102.515 11.352C102.739 11.6293 103.059 11.8267 103.475 11.944L104.867 12.328C105.795 12.5627 106.505 12.984 106.995 13.592C107.486 14.1893 107.731 14.9307 107.731 15.816C107.731 16.4773 107.571 17.064 107.251 17.576C106.931 18.0773 106.483 18.4667 105.907 18.744C105.331 19.0213 104.654 19.16 103.875 19.16ZM109.869 21.88V10.2H111.821V11.88H112.269L111.821 12.344C111.821 11.6293 112.035 11.0693 112.461 10.664C112.888 10.248 113.464 10.04 114.189 10.04C115.075 10.04 115.784 10.344 116.317 10.952C116.851 11.56 117.117 12.376 117.117 13.4V15.784C117.117 16.4667 116.995 17.064 116.749 17.576C116.515 18.0773 116.179 18.4667 115.741 18.744C115.304 19.0213 114.787 19.16 114.189 19.16C113.464 19.16 112.888 18.9573 112.461 18.552C112.035 18.136 111.821 17.5707 111.821 16.856L112.269 17.32H111.805L111.869 19.416V21.88H109.869ZM113.485 17.432C113.997 17.432 114.397 17.2827 114.685 16.984C114.973 16.6853 115.117 16.2587 115.117 15.704V13.496C115.117 12.9413 114.973 12.5147 114.685 12.216C114.397 11.9173 113.997 11.768 113.485 11.768C112.984 11.768 112.589 11.9227 112.301 12.232C112.013 12.5307 111.869 12.952 111.869 13.496V15.704C111.869 16.248 112.013 16.6747 112.301 16.984C112.589 17.2827 112.984 17.432 113.485 17.432ZM122.055 19.16C121.148 19.16 120.434 18.92 119.911 18.44C119.388 17.96 119.127 17.3147 119.127 16.504C119.127 15.64 119.415 14.9733 119.991 14.504C120.567 14.0347 121.383 13.8 122.439 13.8H124.631V13.048C124.631 12.6213 124.492 12.2907 124.215 12.056C123.938 11.8107 123.559 11.688 123.079 11.688C122.642 11.688 122.279 11.784 121.991 11.976C121.703 12.168 121.532 12.4293 121.479 12.76H119.527C119.623 11.928 119.996 11.2667 120.647 10.776C121.298 10.2853 122.13 10.04 123.143 10.04C124.22 10.04 125.068 10.312 125.687 10.856C126.316 11.3893 126.631 12.1147 126.631 13.032V19H124.695V17.464H124.375L124.695 17.032C124.695 17.6827 124.455 18.2 123.975 18.584C123.495 18.968 122.855 19.16 122.055 19.16ZM122.711 17.656C123.276 17.656 123.735 17.512 124.087 17.224C124.45 16.936 124.631 16.5627 124.631 16.104V15.032H122.471C122.066 15.032 121.74 15.1493 121.495 15.384C121.25 15.6187 121.127 15.928 121.127 16.312C121.127 16.728 121.266 17.0587 121.543 17.304C121.831 17.5387 122.22 17.656 122.711 17.656ZM132.673 19.16C131.926 19.16 131.27 19.0213 130.705 18.744C130.15 18.456 129.718 18.056 129.409 17.544C129.099 17.0213 128.945 16.408 128.945 15.704V13.496C128.945 12.7813 129.099 12.168 129.409 11.656C129.718 11.144 130.15 10.7493 130.705 10.472C131.27 10.184 131.926 10.04 132.673 10.04C133.782 10.04 134.667 10.328 135.329 10.904C135.99 11.4693 136.337 12.2427 136.369 13.224H134.369C134.337 12.7653 134.171 12.4133 133.873 12.168C133.585 11.912 133.185 11.784 132.673 11.784C132.139 11.784 131.718 11.9333 131.409 12.232C131.099 12.52 130.945 12.936 130.945 13.48V15.704C130.945 16.248 131.099 16.6693 131.409 16.968C131.718 17.2667 132.139 17.416 132.673 17.416C133.185 17.416 133.585 17.2933 133.873 17.048C134.171 16.792 134.337 16.4347 134.369 15.976H136.369C136.337 16.9573 135.99 17.736 135.329 18.312C134.667 18.8773 133.782 19.16 132.673 19.16ZM142.234 19.16C141.488 19.16 140.837 19.016 140.282 18.728C139.728 18.44 139.296 18.04 138.986 17.528C138.688 17.0053 138.538 16.3973 138.538 15.704V13.496C138.538 12.8027 138.688 12.2 138.986 11.688C139.296 11.1653 139.728 10.76 140.282 10.472C140.837 10.184 141.488 10.04 142.234 10.04C142.97 10.04 143.61 10.184 144.154 10.472C144.709 10.76 145.136 11.1653 145.434 11.688C145.744 12.2 145.898 12.8027 145.898 13.496V15.08H140.474V15.704C140.474 16.3227 140.624 16.792 140.922 17.112C141.221 17.4213 141.664 17.576 142.25 17.576C142.698 17.576 143.061 17.5013 143.338 17.352C143.616 17.192 143.792 16.9627 143.866 16.664H145.834C145.685 17.4213 145.28 18.0293 144.618 18.488C143.968 18.936 143.173 19.16 142.234 19.16ZM143.962 13.96V13.48C143.962 12.872 143.818 12.408 143.53 12.088C143.242 11.7573 142.81 11.592 142.234 11.592C141.658 11.592 141.221 11.7573 140.922 12.088C140.624 12.4187 140.474 12.888 140.474 13.496V13.832L144.106 13.8L143.962 13.96Z" fill="white"/>
</svg>
