<svg width="130" height="110" viewBox="0 0 130 110" fill="none" xmlns="http://www.w3.org/2000/svg">
<circle cx="2" cy="2" r="2" fill="#ABB2BF"/>
<circle cx="33.5" cy="2" r="2" fill="#ABB2BF"/>
<circle cx="65" cy="2" r="2" fill="#ABB2BF"/>
<circle cx="96.5" cy="2" r="2" fill="#ABB2BF"/>
<circle cx="128" cy="2" r="2" fill="#ABB2BF"/>
<circle cx="2" cy="28.5" r="2" fill="#ABB2BF"/>
<circle cx="33.5" cy="28.5" r="2" fill="#ABB2BF"/>
<circle cx="65" cy="28.5" r="2" fill="#ABB2BF"/>
<circle cx="96.5" cy="28.5" r="2" fill="#ABB2BF"/>
<circle cx="128" cy="28.5" r="2" fill="#ABB2BF"/>
<circle cx="2" cy="55" r="2" fill="#ABB2BF"/>
<circle cx="33.5" cy="55" r="2" fill="#ABB2BF"/>
<circle cx="65" cy="55" r="2" fill="#ABB2BF"/>
<circle cx="96.5" cy="55" r="2" fill="#ABB2BF"/>
<circle cx="128" cy="55" r="2" fill="#ABB2BF"/>
<circle cx="2" cy="81.5" r="2" fill="#ABB2BF"/>
<circle cx="33.5" cy="81.5" r="2" fill="#ABB2BF"/>
<circle cx="65" cy="81.5" r="2" fill="#ABB2BF"/>
<circle cx="96.5" cy="81.5" r="2" fill="#ABB2BF"/>
<circle cx="128" cy="81.5" r="2" fill="#ABB2BF"/>
<circle cx="2" cy="108" r="2" fill="#ABB2BF"/>
<circle cx="33.5" cy="108" r="2" fill="#ABB2BF"/>
<circle cx="65" cy="108" r="2" fill="#ABB2BF"/>
<circle cx="96.5" cy="108" r="2" fill="#ABB2BF"/>
<circle cx="128" cy="108" r="2" fill="#ABB2BF"/>
</svg>
