<svg width="111" height="166" viewBox="0 0 111 166" fill="none" xmlns="http://www.w3.org/2000/svg">
<mask id="path-1-outside-1_669_3109" maskUnits="userSpaceOnUse" x="0" y="0" width="111" height="166" fill="black">
<rect fill="white" width="111" height="166"/>
<path fill-rule="evenodd" clip-rule="evenodd" d="M1 1H55.5H110V55.5V110V164.5H55.5H1V110H55.5V55.5H1V1Z"/>
</mask>
<path d="M1 1V0H0V1H1ZM110 1H111V0H110V1ZM110 164.5V165.5H111V164.5H110ZM1 164.5H0V165.5H1V164.5ZM1 110V109H0V110H1ZM55.5 110V111H56.5V110H55.5ZM55.5 55.5H56.5V54.5H55.5V55.5ZM1 55.5H0V56.5H1V55.5ZM55.5 0H1V2H55.5V0ZM110 0H55.5V2H110V0ZM111 55.5V1H109V55.5H111ZM111 110V55.5H109V110H111ZM111 164.5V110H109V164.5H111ZM55.5 165.5H110V163.5H55.5V165.5ZM55.5 163.5H1V165.5H55.5V163.5ZM2 164.5V110H0V164.5H2ZM1 111H55.5V109H1V111ZM54.5 55.5V110H56.5V55.5H54.5ZM1 56.5H55.5V54.5H1V56.5ZM0 1V55.5H2V1H0Z" fill="#ABB2BF" mask="url(#path-1-outside-1_669_3109)"/>
</svg>
